<?xml version="1.0" encoding="UTF-8" standalone="no"?>
<svg
   width="32"
   height="32"
   viewBox="0 0 32 32"
   fill="none"
   version="1.1"
   id="svg38"
   sodipodi:docname="logo.svg"
   inkscape:version="1.2.2 (b0a8486541, 2022-12-01)"
   xmlns:inkscape="http://www.inkscape.org/namespaces/inkscape"
   xmlns:sodipodi="http://sodipodi.sourceforge.net/DTD/sodipodi-0.dtd"
   xmlns="http://www.w3.org/2000/svg"
   xmlns:svg="http://www.w3.org/2000/svg">
  <sodipodi:namedview
     id="namedview40"
     pagecolor="#ffffff"
     bordercolor="#666666"
     borderopacity="1.0"
     inkscape:showpageshadow="2"
     inkscape:pageopacity="0.0"
     inkscape:pagecheckerboard="0"
     inkscape:deskcolor="#d1d1d1"
     showgrid="false"
     inkscape:zoom="11.634116"
     inkscape:cx="13.924564"
     inkscape:cy="20.628984"
     inkscape:window-width="1920"
     inkscape:window-height="1011"
     inkscape:window-x="0"
     inkscape:window-y="0"
     inkscape:window-maximized="1"
     inkscape:current-layer="svg38" />
  <path
     d="M 0,7.53623 C 0,3.37409 3.37409,0 7.53623,0 H 24.4638 C 28.6259,0 32,3.37409 32,7.53623 V 24.4638 C 32,28.6259 28.6259,32 24.4638,32 H 7.53623 C 3.37409,32 0,28.6259 0,24.4638 Z"
     fill="#ffffff"
     id="path18" />
  <path
     fill-rule="evenodd"
     clip-rule="evenodd"
     d="m 14.1243,24.3316 c 0.7594,1.3759 2.7097,1.4505 3.572,0.1365 L 25.736,12.216 C 26.5886,10.9167 25.7729,9.17475 24.2289,8.9977 L 8.42656,7.18564 C 6.74179,6.99245 5.54222,8.7828 6.36168,10.2675 Z"
     fill="url(#paint0_linear_4807_406325)"
     id="path20"
     style="fill:url(#paint0_linear_4807_406325)" />
  <path
     fill-rule="evenodd"
     clip-rule="evenodd"
     d="m 15.2906,21.9758 -0.7135,1.0726 c -0.2891,0.4345 -0.9361,0.4078 -1.1883,-0.0492 l 0.7355,1.3325 c 0.1311,0.2376 0.2978,0.4364 0.4882,0.5959 v -1e-4 c 0.9124,0.7643 2.3704,0.6276 3.0838,-0.4595 L 25.736,12.216 C 26.5886,10.9167 25.7729,9.17471 24.2289,8.99768 L 8.42656,7.18558 C 6.74179,6.99242 5.54222,8.78278 6.36168,10.2674 l 0.06237,0.113 13.45055,1.5563 c 0.8573,0.0992 1.3096,1.0669 0.8358,1.7883 z"
     fill="url(#paint1_linear_4807_406325)"
     id="path22"
     style="fill:url(#paint1_linear_4807_406325)" />
  <defs
     id="defs36">
    <linearGradient
       id="paint0_linear_4807_406325"
       x1="14.6494"
       y1="11.048"
       x2="15.2921"
       y2="23.5245"
       gradientUnits="userSpaceOnUse"
       gradientTransform="translate(-0.5)">
      <stop
         stop-color="#6D4AFF"
         id="stop24" />
      <stop
         offset="0.988738"
         stop-color="#2AE0CA"
         id="stop26" />
    </linearGradient>
    <linearGradient
       id="paint1_linear_4807_406325"
       x1="19.5788"
       y1="26.309401"
       x2="7.6614799"
       y2="5.11906"
       gradientUnits="userSpaceOnUse"
       gradientTransform="translate(-0.5)">
      <stop
         offset="0.0660125"
         stop-color="#ABFFEF"
         id="stop29" />
      <stop
         offset="0.44988"
         stop-color="#CAC9FF"
         id="stop31" />
      <stop
         offset="1"
         stop-color="#6D4AFF"
         id="stop33" />
    </linearGradient>
  </defs>
</svg>
